<?xml version="1.0" encoding="UTF-8"?> <svg xmlns="http://www.w3.org/2000/svg" width="133" height="24" viewBox="0 0 133 24" fill="none"> <path d="M2.5 7.97656V12.2969H5.19531C5.91927 12.2969 6.47656 12.1094 6.86719 11.7344C7.26302 11.3594 7.46094 10.8255 7.46094 10.1328C7.46094 9.45573 7.25521 8.92708 6.84375 8.54688C6.43229 8.16667 5.86198 7.97656 5.13281 7.97656H2.5ZM2.5 13.5391V18H1.09375V6.72656H5.32031C6.40885 6.72656 7.27865 7.03385 7.92969 7.64844C8.58594 8.25781 8.91406 9.07031 8.91406 10.0859C8.91406 10.8724 8.71354 11.5521 8.3125 12.125C7.91146 12.6979 7.35677 13.0964 6.64844 13.3203L9.25781 18H7.60938L5.19531 13.5391H2.5ZM13.7344 10.9141C13.1042 10.9141 12.5807 11.1328 12.1641 11.5703C11.7526 12.0026 11.526 12.5599 11.4844 13.2422H15.8984C15.8828 12.5547 15.6771 11.9948 15.2812 11.5625C14.8854 11.1302 14.3698 10.9141 13.7344 10.9141ZM15.8672 15.6719H17.2031C17.0833 16.3906 16.7083 16.9818 16.0781 17.4453C15.4531 17.9089 14.7005 18.1406 13.8203 18.1406C12.6589 18.1406 11.7448 17.7656 11.0781 17.0156C10.4115 16.2656 10.0781 15.25 10.0781 13.9688C10.0781 12.6979 10.4115 11.6745 11.0781 10.8984C11.75 10.1224 12.6432 9.73438 13.7578 9.73438C14.8516 9.73438 15.7161 10.1016 16.3516 10.8359C16.987 11.5703 17.3047 12.5547 17.3047 13.7891V14.3047H11.4766V14.3828C11.4766 15.1641 11.6901 15.7891 12.1172 16.2578C12.5443 16.7266 13.1224 16.9609 13.8516 16.9609C14.362 16.9609 14.7969 16.8438 15.1562 16.6094C15.5156 16.375 15.7526 16.0625 15.8672 15.6719ZM21.7422 9.73438C22.3255 9.73438 22.8438 9.86719 23.2969 10.1328C23.75 10.3984 24.1094 10.7708 24.375 11.25H24.4062V9.875H25.7031V20.7109H24.3438V16.6406H24.3125C24.0573 17.1094 23.7005 17.4766 23.2422 17.7422C22.7891 18.0078 22.2786 18.1406 21.7109 18.1406C20.6797 18.1406 19.849 17.7578 19.2188 16.9922C18.5938 16.2266 18.2812 15.2083 18.2812 13.9375C18.2812 12.6615 18.5964 11.6432 19.2266 10.8828C19.8568 10.1172 20.6953 9.73438 21.7422 9.73438ZM21.9844 16.9453C22.6823 16.9453 23.25 16.6693 23.6875 16.1172C24.125 15.5651 24.3438 14.8385 24.3438 13.9375C24.3438 13.0365 24.125 12.3099 23.6875 11.7578C23.25 11.2057 22.6823 10.9297 21.9844 10.9297C21.2708 10.9297 20.7057 11.2005 20.2891 11.7422C19.8776 12.2786 19.6719 13.0104 19.6719 13.9375C19.6719 14.8646 19.8776 15.599 20.2891 16.1406C20.7057 16.6771 21.2708 16.9453 21.9844 16.9453ZM34.1484 9.875V18H32.8594V16.6797H32.8281C32.3229 17.6536 31.4635 18.1406 30.25 18.1406C29.3698 18.1406 28.6797 17.875 28.1797 17.3438C27.6849 16.8073 27.4375 16.0755 27.4375 15.1484V9.875H28.7969V14.9062C28.7969 16.2604 29.4219 16.9375 30.6719 16.9375C31.3281 16.9375 31.8438 16.7318 32.2188 16.3203C32.599 15.9036 32.7891 15.3464 32.7891 14.6484V9.875H34.1484ZM39.1719 10.9141C38.5417 10.9141 38.0182 11.1328 37.6016 11.5703C37.1901 12.0026 36.9635 12.5599 36.9219 13.2422H41.3359C41.3203 12.5547 41.1146 11.9948 40.7188 11.5625C40.3229 11.1302 39.8073 10.9141 39.1719 10.9141ZM41.3047 15.6719H42.6406C42.5208 16.3906 42.1458 16.9818 41.5156 17.4453C40.8906 17.9089 40.138 18.1406 39.2578 18.1406C38.0964 18.1406 37.1823 17.7656 36.5156 17.0156C35.849 16.2656 35.5156 15.25 35.5156 13.9688C35.5156 12.6979 35.849 11.6745 36.5156 10.8984C37.1875 10.1224 38.0807 9.73438 39.1953 9.73438C40.2891 9.73438 41.1536 10.1016 41.7891 10.8359C42.4245 11.5703 42.7422 12.5547 42.7422 13.7891V14.3047H36.9141V14.3828C36.9141 15.1641 37.1276 15.7891 37.5547 16.2578C37.9818 16.7266 38.5599 16.9609 39.2891 16.9609C39.7995 16.9609 40.2344 16.8438 40.5938 16.6094C40.9531 16.375 41.1901 16.0625 41.3047 15.6719ZM43.9766 12.1172C43.9766 11.4193 44.2578 10.849 44.8203 10.4062C45.388 9.95833 46.1172 9.73438 47.0078 9.73438C47.8464 9.73438 48.5443 9.95833 49.1016 10.4062C49.6589 10.8542 49.9531 11.4219 49.9844 12.1094H48.6875C48.6406 11.7135 48.4635 11.4036 48.1562 11.1797C47.8542 10.9557 47.4557 10.8438 46.9609 10.8438C46.4661 10.8438 46.0677 10.9557 45.7656 11.1797C45.4635 11.3984 45.3125 11.6875 45.3125 12.0469C45.3125 12.599 45.763 12.9896 46.6641 13.2188L47.9219 13.5234C48.7396 13.7318 49.3151 14.0026 49.6484 14.3359C49.987 14.6641 50.1562 15.1276 50.1562 15.7266C50.1562 16.4349 49.8542 17.0156 49.25 17.4688C48.6458 17.9167 47.8698 18.1406 46.9219 18.1406C46.0365 18.1406 45.3047 17.9219 44.7266 17.4844C44.1536 17.0417 43.8307 16.4583 43.7578 15.7344H45.1172C45.2682 16.599 45.8984 17.0312 47.0078 17.0312C47.5547 17.0312 47.987 16.9245 48.3047 16.7109C48.6276 16.4922 48.7891 16.1979 48.7891 15.8281C48.7891 15.5365 48.6927 15.3047 48.5 15.1328C48.3125 14.9609 47.9922 14.8151 47.5391 14.6953L46.1094 14.3281C44.6875 13.9635 43.9766 13.2266 43.9766 12.1172ZM52.0078 7.91406H53.3672V9.875H54.9453V10.9922H53.3672V15.8203C53.3672 16.1901 53.4479 16.4635 53.6094 16.6406C53.7708 16.8125 54.026 16.8984 54.375 16.8984C54.5938 16.8984 54.7812 16.8854 54.9375 16.8594V18C54.7604 18.0417 54.474 18.0625 54.0781 18.0625C53.3333 18.0625 52.8021 17.8958 52.4844 17.5625C52.1667 17.2292 52.0078 16.6719 52.0078 15.8906V10.9922H50.7969V9.875H52.0078V7.91406ZM62.3594 16.9844C63 16.9844 63.5365 16.7865 63.9688 16.3906C64.4062 15.9896 64.625 15.4974 64.625 14.9141V14.25L62.4531 14.3828C61.9062 14.4193 61.4818 14.5521 61.1797 14.7812C60.8828 15.0104 60.7344 15.3177 60.7344 15.7031C60.7344 16.0885 60.8828 16.3984 61.1797 16.6328C61.4766 16.8672 61.8698 16.9844 62.3594 16.9844ZM62.0547 18.1406C61.2474 18.1406 60.5938 17.9167 60.0938 17.4688C59.599 17.0208 59.3516 16.4323 59.3516 15.7031C59.3516 15.0052 59.6068 14.4479 60.1172 14.0312C60.6328 13.6146 61.3594 13.3802 62.2969 13.3281L64.625 13.1953V12.5156C64.625 12.0208 64.4688 11.6328 64.1562 11.3516C63.8438 11.0703 63.4062 10.9297 62.8438 10.9297C62.3281 10.9297 61.9089 11.0443 61.5859 11.2734C61.263 11.4974 61.0573 11.8125 60.9688 12.2188H59.6562C59.7031 11.4948 60.0156 10.901 60.5938 10.4375C61.1771 9.96875 61.9375 9.73438 62.875 9.73438C63.8281 9.73438 64.5833 9.97396 65.1406 10.4531C65.7031 10.9323 65.9844 11.5755 65.9844 12.3828V18H64.6953V16.6016H64.6641C64.4193 17.0651 64.0599 17.4375 63.5859 17.7188C63.112 18 62.6016 18.1406 62.0547 18.1406ZM74.9375 9.73438C75.9792 9.73438 76.8177 10.1172 77.4531 10.8828C78.0938 11.6484 78.4141 12.6667 78.4141 13.9375C78.4141 15.2031 78.0964 16.2214 77.4609 16.9922C76.8255 17.7578 75.9948 18.1406 74.9688 18.1406C74.3958 18.1406 73.8828 18.0104 73.4297 17.75C72.9766 17.4896 72.6276 17.1328 72.3828 16.6797H72.3516V20.7109H70.9922V9.875H72.2812V11.25H72.3125C72.5677 10.7812 72.9245 10.4115 73.3828 10.1406C73.8411 9.86979 74.3594 9.73438 74.9375 9.73438ZM74.6719 16.9453C75.3958 16.9453 75.9688 16.6745 76.3906 16.1328C76.8125 15.5911 77.0234 14.8594 77.0234 13.9375C77.0234 13.0156 76.8125 12.2839 76.3906 11.7422C75.9688 11.2005 75.3958 10.9297 74.6719 10.9297C73.974 10.9297 73.4115 11.2057 72.9844 11.7578C72.5573 12.3099 72.3438 13.0365 72.3438 13.9375C72.3438 14.8438 72.5573 15.5729 72.9844 16.125C73.4115 16.6719 73.974 16.9453 74.6719 16.9453ZM79.7891 18V9.875H81.0703V11.2031H81.1016C81.237 10.75 81.4792 10.3932 81.8281 10.1328C82.1823 9.86719 82.5964 9.73438 83.0703 9.73438C83.1797 9.73438 83.362 9.7526 83.6172 9.78906V11.1094C83.4714 11.0573 83.2292 11.0312 82.8906 11.0312C82.3646 11.0312 81.9427 11.2057 81.625 11.5547C81.3073 11.9036 81.1484 12.3646 81.1484 12.9375V18H79.7891ZM84.7969 18V9.875H86.1562V18H84.7969ZM85.4766 8.50781C85.2474 8.50781 85.0495 8.42448 84.8828 8.25781C84.7161 8.09115 84.6328 7.89323 84.6328 7.66406C84.6328 7.42969 84.7161 7.23177 84.8828 7.07031C85.0495 6.90365 85.2474 6.82031 85.4766 6.82031C85.7109 6.82031 85.9115 6.90365 86.0781 7.07031C86.2448 7.23177 86.3281 7.42969 86.3281 7.66406C86.3281 7.89323 86.2448 8.09115 86.0781 8.25781C85.9115 8.42448 85.7109 8.50781 85.4766 8.50781ZM94.7422 12.5391H93.4141C93.3099 12.0703 93.0781 11.6849 92.7188 11.3828C92.3646 11.0807 91.9036 10.9297 91.3359 10.9297C90.6276 10.9297 90.0573 11.2031 89.625 11.75C89.1927 12.2917 88.9766 13.0208 88.9766 13.9375C88.9766 14.8698 89.1927 15.6042 89.625 16.1406C90.0625 16.6771 90.638 16.9453 91.3516 16.9453C91.8984 16.9453 92.349 16.8099 92.7031 16.5391C93.0625 16.263 93.3021 15.8776 93.4219 15.3828H94.7578C94.6536 16.1953 94.2865 16.8594 93.6562 17.375C93.0312 17.8854 92.2604 18.1406 91.3438 18.1406C90.2083 18.1406 89.2995 17.7656 88.6172 17.0156C87.9349 16.2604 87.5938 15.2344 87.5938 13.9375C87.5938 12.6615 87.9349 11.6432 88.6172 10.8828C89.2995 10.1172 90.2031 9.73438 91.3281 9.73438C92.2969 9.73438 93.0833 10.0078 93.6875 10.5547C94.2969 11.1016 94.6484 11.763 94.7422 12.5391ZM99.2656 10.9141C98.6354 10.9141 98.112 11.1328 97.6953 11.5703C97.2839 12.0026 97.0573 12.5599 97.0156 13.2422H101.43C101.414 12.5547 101.208 11.9948 100.812 11.5625C100.417 11.1302 99.901 10.9141 99.2656 10.9141ZM101.398 15.6719H102.734C102.615 16.3906 102.24 16.9818 101.609 17.4453C100.984 17.9089 100.232 18.1406 99.3516 18.1406C98.1901 18.1406 97.276 17.7656 96.6094 17.0156C95.9427 16.2656 95.6094 15.25 95.6094 13.9688C95.6094 12.6979 95.9427 11.6745 96.6094 10.8984C97.2812 10.1224 98.1745 9.73438 99.2891 9.73438C100.383 9.73438 101.247 10.1016 101.883 10.8359C102.518 11.5703 102.836 12.5547 102.836 13.7891V14.3047H97.0078V14.3828C97.0078 15.1641 97.2214 15.7891 97.6484 16.2578C98.0755 16.7266 98.6536 16.9609 99.3828 16.9609C99.8932 16.9609 100.328 16.8438 100.688 16.6094C101.047 16.375 101.284 16.0625 101.398 15.6719Z" fill="white"></path> <path d="M132.354 14.3536C132.549 14.1583 132.549 13.8417 132.354 13.6464L129.172 10.4645C128.976 10.2692 128.66 10.2692 128.464 10.4645C128.269 10.6597 128.269 10.9763 128.464 11.1716L131.293 14L128.464 16.8284C128.269 17.0237 128.269 17.3403 128.464 17.5355C128.66 17.7308 128.976 17.7308 129.172 17.5355L132.354 14.3536ZM112 14.5H132V13.5H112V14.5Z" fill="white"></path> </svg> 